<?xml version="1.0" encoding="utf-8"?>
<!-- Generator: Adobe Illustrator 23.0.3, SVG Export Plug-In . SVG Version: 6.00 Build 0)  -->
<svg version="1.1" id="Layer_1" xmlns="http://www.w3.org/2000/svg" xmlns:xlink="http://www.w3.org/1999/xlink" x="0px" y="0px"
	 viewBox="0 0 604.5 479.9" style="enable-background:new 0 0 604.5 479.9;" xml:space="preserve">
<style type="text/css">
	.st0{opacity:0.82;}
	.st1{fill:#4D688D;}
	.st2{fill:none;stroke:#000000;stroke-miterlimit:10;}
</style>
<g class="st0">
	<g>
		<g>
			<path class="st1" d="M536.4,2.3v26.3c0,0-2.6,10.8,9.5,22.7c12.1,12,50,55.1,50,55.1s8.6,19.2,8.6,33.5c0,14.4-6.9,86.2-6.9,86.2
				l-15.5,201.1h-17.2l5.2-258.6c0,0,0-2.4,0-7.2s-17.2-14.4-17.2,7.2s-10.3,258.6-10.3,258.6h-15.7c0,0,0-253.8,0-263.4
				s-17.2-19.2-17.2-2.4c0,16.8-5.2,265.8-5.2,265.8h-15.6c0,0-6.9-258.6-6.9-265.8s-13.8-21.6-19,0l6.9,265.8h-17.2l-17.2-273V135
				c0,0-1.7-19.2,5.2-28.7c6.9-9.6,50-57.5,50-57.5s6.9-2.4,6.9-21.6s0-23.9,0-23.9L536.4,2.3z"/>
		</g>
	</g>
</g>
<g class="st0">
	<g>
		<g>
			<path class="st1" d="M296.7,479.9l-0.7-26.3c0,0,2.3-10.8-10-22.6c-12.4-11.8-51.4-54.3-51.4-54.3s-9.1-19-9.5-33.4
				s4.7-86.3,4.7-86.3l10.6-201.4l17.2-0.3l1.3,258.6c0,0,0.1,2.4,0.2,7.2c0.1,4.8,17.6,14.1,17.1-7.4S280.1,55,280.1,55l15.5-0.2
				c0,0,6.4,253.8,6.6,263.3c0.2,9.6,17.7,18.9,17.3,2.1c-0.4-16.8-1.5-265.8-1.5-265.8l15.5-0.2c0,0,13.4,258.5,13.6,265.6
				c0.2,7.2,14.3,21.3,19-0.3L352.5,53.9l17.2-0.3l24.1,272.7l0.5,19.2c0,0,2.2,19.1-4.5,28.8s-48.5,58.2-48.5,58.2
				s-6.8,2.5-6.4,21.7c0.5,19.2,0.6,23.9,0.6,23.9L296.7,479.9z"/>
		</g>
	</g>
</g>
<g>
	<g>
		<g>
			<path d="M137,387.7c-1.5-3.7-3.3-7.4-5.3-11l-31-1.9v3.7l26.2,10.2c2.5,3.6,4.5,7.4,5.9,11.5c1.5,4.1,2.2,9,2.2,14.6
				c-0.1,9.9-3,18.7-8.9,26.6c-5.8,7.8-13.9,14-24.2,18.5c-10.3,4.5-22.3,6.7-36.1,6.5C55,466.3,45,464,36,459.6
				c-9.1-4.5-16.3-10.5-21.6-18.2s-8-16.6-7.9-26.7c0-5.1,1.1-9.7,3.1-13.9s5.1-8.7,9.2-13.5l24-7.2v-3.9l-32.3,0.7
				c-2.7,5-5.1,10.2-7.2,15.5c-2.1,5.3-3.2,12.2-3.3,20.9c-0.1,8.6,1.7,16.8,5.4,24.4c3.7,7.6,8.9,14.3,15.7,20.2
				s14.6,10.4,23.6,13.8c9,3.3,18.8,5.1,29.3,5.1c12.8,0.1,24.2-2.4,34.3-7.5s18.1-12.1,24.1-21.1c6-8.9,9-19.2,9.1-30.6
				c0.1-6.7-0.3-12.4-1.1-17.1C139.6,395.7,138.5,391.4,137,387.7z"/>
			<path d="M134.8,354h5.2l0.3-34.4h-5.2l-2.8,16.4l-44-15.3l0.4-46.8l44.3-15.2l2.6,15.7h5.2l0.3-39.4h-5.2l-2.8,11.1L2.2,292v3.9
				l130.4,48.2L134.8,354z M80.9,318.1l-60-21l60.3-20.6L80.9,318.1z"/>
			<path d="M133.9,126.8L72.2,162c-2.7-7.8-7-14.1-12.8-18.9s-12.9-7.2-21.2-7.3c-10.5-0.1-18.9,3.6-25,11S4,164.4,3.9,177.3
				l-0.3,36.6h5.2l3.7-14.8l119.9,1l3.4,14.8h5.2l0.3-39.8h-5.2l-3.9,13.8L76,188.4l0.1-16.1l65.5-36.4l0.3-21.3h-5.2L133.9,126.8z
				 M68.9,188.5L11.2,188l0.1-12c0.1-8.6,2.8-15.4,8.1-20.5c5.3-5,12.5-7.5,21.5-7.4c8.2,0.1,14.9,2.7,20.2,7.8
				c5.3,5.2,7.9,11.6,7.9,19.4L68.9,188.5z"/>
			<polygon points="137.4,30.1 133.7,48.5 12.4,47.5 12.7,11.5 43.3,4 43.4,0.3 5.5,0 4.6,106.1 42.5,106.4 42.5,102.7 12,94.7 
				12.3,58.6 133.7,59.6 137,78.2 142.2,78.2 142.6,30.1 			"/>
		</g>
	</g>
</g>
<line class="st2" x1="188" y1="479.9" x2="188" y2="1.3"/>
</svg>
